<?xml version="1.0" standalone="no"?>
<svg xmlns:xlink="http://www.w3.org/1999/xlink" id="wave" style="transform:rotate(180deg); transition: 0.3s" viewBox="0 0 1440 120" version="1.1" xmlns="http://www.w3.org/2000/svg"><defs><linearGradient id="sw-gradient-0" x1="0" x2="0" y1="1" y2="0"><stop stop-color="rgba(0, 152.865, 28.588, 1)" offset="0%"/><stop stop-color="rgba(0, 218.892, 48.351, 1)" offset="100%"/></linearGradient></defs><path style="transform:translate(0, 0px); opacity:1" fill="url(#sw-gradient-0)" d="M0,72L30,74C60,76,120,80,180,74C240,68,300,52,360,42C420,32,480,28,540,32C600,36,660,48,720,56C780,64,840,68,900,58C960,48,1020,24,1080,16C1140,8,1200,16,1260,34C1320,52,1380,80,1440,94C1500,108,1560,108,1620,98C1680,88,1740,68,1800,66C1860,64,1920,80,1980,78C2040,76,2100,56,2160,46C2220,36,2280,36,2340,40C2400,44,2460,52,2520,50C2580,48,2640,36,2700,32C2760,28,2820,32,2880,34C2940,36,3000,36,3060,44C3120,52,3180,68,3240,64C3300,60,3360,36,3420,32C3480,28,3540,44,3600,48C3660,52,3720,44,3780,42C3840,40,3900,44,3960,40C4020,36,4080,24,4140,24C4200,24,4260,36,4290,42L4320,48L4320,120L4290,120C4260,120,4200,120,4140,120C4080,120,4020,120,3960,120C3900,120,3840,120,3780,120C3720,120,3660,120,3600,120C3540,120,3480,120,3420,120C3360,120,3300,120,3240,120C3180,120,3120,120,3060,120C3000,120,2940,120,2880,120C2820,120,2760,120,2700,120C2640,120,2580,120,2520,120C2460,120,2400,120,2340,120C2280,120,2220,120,2160,120C2100,120,2040,120,1980,120C1920,120,1860,120,1800,120C1740,120,1680,120,1620,120C1560,120,1500,120,1440,120C1380,120,1320,120,1260,120C1200,120,1140,120,1080,120C1020,120,960,120,900,120C840,120,780,120,720,120C660,120,600,120,540,120C480,120,420,120,360,120C300,120,240,120,180,120C120,120,60,120,30,120L0,120Z"/></svg>